# AST/ASF file generated using VICON BodyLanguage
# -----------------------------------------------
:version 1.10
:name VICON
:units
  mass 1.0
  length 0.45
  angle deg
:documentation
   .ast/.asf automatically generated from VICON data using
   VICON BodyBuilder and BodyLanguage model FoxedUp or BRILLIANT.MOD
:root
   order TX TY TZ RX RY RZ
   axis XYZ
   position 0 0 0  
   orientation 0 0 0 
:bonedata
  begin
     id 1 
     name lhipjoint
     direction 0.682418 -0.694059 0.22932 
     length 2.25561 
     axis 0 0 0  XYZ
  end
  begin
     id 2 
     name lfemur
     direction 0.34202 -0.939693 0  
     length 6.96448  
     axis 0 0 20  XYZ
    dof rx ry rz
    limits (-160.0 20.0)
           (-70.0 70.0)
           (-60.0 70.0)
  end
  begin
     id 3 
     name ltibia
     direction 0.34202 -0.939693 0   
     length 6.88553   
     axis 0 0 20   XYZ
    dof rx
    limits (-10.0 170.0)
  end
  begin
     id 4 
     name lfoot
     direction 0.0723587 -0.198804 0.977364   
     length 1.88518   
     axis -90 7.62852e-016 20   XYZ
    dof rx rz
    limits (-45.0 90.0)
           (-70.0 20.0)
  end
  begin
     id 5 
     name ltoes
     direction 1.53558e-011 -4.21962e-011 1   
     length 0.952124   
     axis -90 7.62852e-016 20   XYZ
    dof rx
    limits (-90.0 20.0)
  end
  begin
     id 6 
     name rhipjoint
     direction -0.657603 -0.71533 0.236348   
     length 2.18854  
     axis 0 0 0  XYZ 
  end
  begin
     id 7 
     name rfemur
     direction -0.34202 -0.939693 0   
     length 6.86686   
     axis 0 0 -20   XYZ
    dof rx ry rz
    limits (-160.0 20.0)
           (-70.0 70.0)
           (-70.0 60.0)
  end
  begin
     id 8 
     name rtibia
     direction -0.34202 -0.939693 0   
     length 6.59503   
     axis 0 0 -20   XYZ
    dof rx
    limits (-10.0 170.0)
 end
 begin
     id 9 
     name rfoot
     direction -0.101977 -0.280179 0.954516   
     length 1.93723  
     axis -90 -7.62852e-016 -20   XYZ
    dof rx rz
    limits (-45.0 90.0)
           (-20.0 70.0)
  end
  begin
     id 10 
     name rtoes
     direction -1.53564e-011 -4.21897e-011 1   
     length 0.970315   
     axis -90 -7.62852e-016 -20   XYZ
    dof rx
    limits (-90.0 20.0)
  end
  begin
     id 11 
     name lowerback
     direction -0.0339559 0.999421 -0.00235966   
     length 1.88543   
     axis 0 0 0   XYZ
    dof rx ry rz
    limits (-20.0 45.0)
           (-30.0 30.0)
           (-30.0 30.0)
  end
  begin
     id 12 
     name upperback
     direction 0.00401003 0.999739 0.0224689   
     length 1.8856   
     axis 0 0 0   XYZ
    dof rx ry rz
    limits (-20.0 45.0)
           (-30.0 30.0)
           (-30.0 30.0)
  end
  begin
     id 13 
     name thorax
     direction 0.0198619 0.999546 0.0226536   
     length 1.88352   
     axis 0 0 0   XYZ
    dof rx ry rz
    limits (-20.0 45.0)
           (-30.0 30.0)
           (-30.0 30.0)
  end
  begin
     id 14 
     name lowerneck
     direction -0.0461848 0.998632 0.0245198   
     length 1.34895   
     axis 0 0 0   XYZ
    dof rx ry rz
    limits (-20.0 45.0)
           (-30.0 30.0)
           (-30.0 30.0)
  end
  begin
     id 15 
     name upperneck
     direction -0.0180627 0.994724 -0.100984   
     length 1.35214   
     axis 0 0 0   XYZ
    dof rx ry rz
    limits (-20.0 45.0)
           (-30.0 30.0)
           (-30.0 30.0)
  end
  begin
     id 16
     name head
     direction -0.00374772 0.999293 -0.037403  
     length 1.3568  
     axis 0 0 0   XYZ
    dof rx ry rz
    limits (-20.0 45.0)
           (-30.0 30.0)
           (-30.0 30.0)
  end
  begin
     id 17 
     name lclavicle
     direction 0.971773 0.191119 0.138311  
     length 2.84954  
     axis 0 0 0   XYZ
    dof ry rz
    limits (-20.0 10.0)
           (0.0 20.0)
  end
  begin
     id 18 
     name lhumerus
     direction 1 -4.4897e-011 -2.43761e-027   
     length 4.40919   
     axis 180 -30 -90   XYZ
    dof rx ry rz
    limits (-60.0 90.0)
           (-90.0 90.0)
           (-90.0 90.0)
  end
  begin
     id 19
     name lradius
     direction 1 -4.4896e-011 -9.1621e-027   
     length 3.03857   
     axis 180 -30 -90   XYZ
    dof rx
    limits (-10.0 170.0)
  end
  begin
     id 20
     name lwrist
     direction 1 -4.4896e-011 -1.41363e-026   
     length 1.51928   
     axis 1.07133e-014 90 90   XYZ
    dof ry
    limits (-180.0 0.0)
 end
  begin
     id 21 
     name lhand
     direction 1 -4.48978e-011 -2.82725e-026   
     length 0.523208   
     axis 1.80403e-014 90 90   XYZ
    dof rx rz
    limits (-90.0 90.0)
           (-45.0 45.0)
  end
  begin
     id 22 
     name lfingers
     direction 1 -4.48977e-011 -5.6545e-026   
     length 0.421824   
     axis 3.60806e-014 90 90   XYZ
    dof rx
    limits (0.0 90.0)
  end
  begin
     id 23
     name lthumb
     direction 0.707107 -6.34962e-011 0.707107   
     length 0.605657   
     axis -90 45 2.85299e-015   XYZ
    dof rx rz
    limits (-45.0 45.0)
           (-45.0 45.0)
  end
  begin
     id 24 
     name rclavicle
     direction -0.957247 0.24311 0.156766   
     length 3.12406  
     axis 0 0 0   XYZ 
    dof ry rz
    limits (-10.0 20.0)
           (-20.0 0.0)
  end
  begin
     id 25 
     name rhumerus
     direction -1 -4.48964e-011 -1.70632e-027  
     length 4.61969   
     axis 180 30 90   XYZ
    dof rx ry rz
    limits (-90.0 60.0)
           (-90.0 90.0)
           (-90.0 90.0)
  end
  begin
     id 26 
     name rradius
     direction -1 -4.48966e-011 -6.60395e-027   
     length 3.09382   
     axis 180 30 90   XYZ
    dof rx
    limits (-10.0 170.0)
  end
  begin
     id 27 
     name rwrist
     direction -1 -4.48963e-011 -1.41363e-026   
     length 1.54691   
     axis 1.07133e-014 -90 -90   XYZ
    dof ry
    limits (-180.0 0.0)
  end
  begin
     id 28
     name rhand
     direction -1 -4.49013e-011 -2.82725e-026   
     length 0.500896   
     axis 1.80403e-014 -90 -90   XYZ
    dof rx rz
    limits (-90.0 90.0)
           (-45.0 45.0)
  end
  begin
     id 29
     name rfingers
     direction -1 -4.48902e-011 -5.6545e-026   
     length 0.403835   
     axis 3.60806e-014 -90 -90   XYZ
    dof rx
    limits (0.0 90.0)
  end
  begin
     id 30
     name rthumb
     direction -0.707107 -6.34953e-011 0.707107   
     length 0.579829   
     axis -90 -45 -2.85299e-015   XYZ
    dof rx rz
    limits (-45.0 45.0)
           (-45.0 45.0)
  end
:hierarchy
  begin
    root lhipjoint rhipjoint lowerback
    lhipjoint lfemur
    lfemur ltibia
    ltibia lfoot
    lfoot ltoes
    rhipjoint rfemur
    rfemur rtibia
    rtibia rfoot
    rfoot rtoes
    lowerback upperback
    upperback thorax
    thorax lowerneck lclavicle rclavicle
    lowerneck upperneck
    upperneck head
    lclavicle lhumerus
    lhumerus lradius
    lradius lwrist
    lwrist lhand lthumb
    lhand lfingers
    rclavicle rhumerus
    rhumerus rradius
    rradius rwrist
    rwrist rhand rthumb
    rhand rfingers
  end

#!OML:ASF E:\madness\Project 1\Capture day 1\Session 1\Female1.ASF
:FULLY-SPECIFIED
:DEGREES
407
root 32.3522 16.0216 0.980079 -349.865 -86.5309 357.525
lowerback -1.76627 -2.97587 -8.34686
upperback -3.12127 -3.95584 3.71579
thorax -1.44423 -1.81761 8.56439
lowerneck 0.682759 -11.4418 -9.07607
upperneck 8.12458 -15.1489 -3.0494
head 2.97805 -7.93809 0.0838726
rclavicle 1.42876e-015 -1.82882e-014
rhumerus -61.9333 32.7506 -74.8732
rradius 56.1923
rwrist -2.96625
rhand -6.2496 -45.1822
rfingers 7.12502
rthumb 19.5924 -74.2149
lclavicle 1.42876e-015 -1.82882e-014
lhumerus -73.572 -25.7642 68.9968
lradius 92.0342
lwrist -6.59593
lhand -11.8814 -17.8317
lfingers 7.12502
lthumb 14.1713 11.6649
rfemur -17.7921 7.91867 21.1293
rtibia 29.6138
rfoot -18.5658 -20.7689
rtoes 3.34777
lfemur -23.6228 -12.4181 -14.6971
ltibia 34.9134
lfoot -13.5914 6.97175
ltoes -7.7935
408
root 32.366 16.0168 0.984754 -348.25 -86.673 356.08
lowerback -1.82874 -3.01727 -8.31857
upperback -3.23703 -4.01225 3.80877
thorax -1.51453 -1.83969 8.64739
lowerneck 0.818689 -11.7238 -9.29872
upperneck 8.18998 -15.5431 -3.00829
head 3.01374 -8.14161 0.116423
rclavicle -9.38015e-015 4.37326e-015
rhumerus -62.0593 33.1706 -75.0371
rradius 56.3084
rwrist -3.0169
rhand -3.21803 -48.4203
rfingers 7.12502
rthumb 22.5047 -77.1288
lclavicle -9.38015e-015 4.37326e-015
lhumerus -73.6821 -25.4991 68.9494
lradius 91.9717
lwrist -6.5857
lhand -11.4587 -17.7513
lfingers 7.12502
lthumb 14.5786 11.7164
rfemur -18.1505 7.8973 21.148
rtibia 29.7309
rfoot -18.3168 -20.7064
rtoes 2.05832
lfemur -23.9496 -12.1984 -14.6121
ltibia 35.0689
lfoot -13.5436 6.90537
ltoes -7.94719
409
root 32.3705 16.0132 0.985306 -349.31 -86.1663 357.011
lowerback -1.66006 -3.23286 -8.37983
upperback -3.17972 -4.31041 3.87452
thorax -1.47771 -1.99184 8.75111
lowerneck 1.37169 -12.0524 -9.57713
upperneck 7.91561 -16.0616 -2.83108
head 2.88063 -8.39024 0.237802
rclavicle 4.27325e-014 -3.53837e-014
rhumerus -62.0902 33.5565 -75.2476
rradius 56.3693
rwrist -3.41899
rhand -3.84051 -48.0625
rfingers 7.12502
rthumb 21.9071 -76.8422
lclavicle 4.27325e-014 -3.53837e-014
lhumerus -73.6183 -25.2739 68.8963
lradius 91.9069
lwrist -6.52753
lhand -11.6698 -17.7725
lfingers 7.12502
lthumb 14.3752 11.7097
rfemur -17.977 7.75212 21.2056
rtibia 29.7969
rfoot -18.6274 -21.0149
rtoes 2.78453
lfemur -23.9906 -12.346 -14.6128
ltibia 35.1989
lfoot -13.7056 6.48703
ltoes -7.45397
410
root 32.3769 16.0125 0.991704 -349.707 -86.3588 357.483
lowerback -1.76777 -3.22111 -8.40725
upperback -3.13819 -4.28518 3.89073
thorax -1.37597 -1.98547 8.7766
lowerneck 1.03234 -12.4359 -9.63504
upperneck 8.20601 -16.5228 -2.96089
head 3.05211 -8.63524 0.14639
rclavicle -3.02028e-014 7.95139e-016
rhumerus -62.0556 33.9001 -75.4397
rradius 56.3828
rwrist -3.90502
rhand -4.53155 -48.1922
rfingers 7.12502
rthumb 21.2434 -77.0481
lclavicle -3.02028e-014 7.95139e-016
lhumerus -73.4763 -25.1112 68.84
lradius 91.8023
lwrist -6.59146
lhand -12.3678 -17.9101
lfingers 7.12502
lthumb 13.7025 11.6188
rfemur -18.1534 7.59806 21.1053
rtibia 29.8243
rfoot -18.3208 -20.8074
rtoes 1.79338
lfemur -24.1204 -12.2245 -14.6883
ltibia 35.3104
lfoot -13.7036 6.49153
ltoes -7.02249
411
root 32.3779 16.0165 0.994259 -350.529 -86.3144 358.305
lowerback -1.76315 -3.28882 -8.48048
upperback -3.15351 -4.37658 3.91845
thorax -1.3685 -2.03008 8.84631
lowerneck 0.868967 -12.6662 -9.57652
upperneck 8.13607 -16.8036 -3.14041
head 3.04303 -8.77501 0.0622432
rclavicle -4.96403e-014 5.04913e-014
rhumerus -61.9751 34.1031 -75.3902
rradius 56.4311
rwrist -3.23527
rhand -3.0478 -49.3291
rfingers 7.12502
rthumb 22.6681 -78.0178
lclavicle -4.96403e-014 5.04913e-014
lhumerus -73.4723 -24.9849 68.792
lradius 91.666
lwrist -6.70986
lhand -12.7378 -18.3142
lfingers 7.12502
lthumb 13.346 11.2383
rfemur -18.1401 7.42906 21.0541
rtibia 29.8148
rfoot -18.3326 -20.7168
rtoes 1.96909
lfemur -24.1512 -12.2634 -14.7413
ltibia 35.3654
lfoot -13.7742 6.36217
ltoes -6.52993
412
root 32.3849 16.0187 0.994623 -350.096 -86.2215 357.826
lowerback -1.59459 -3.33008 -8.47158
upperback -3.17944 -4.44553 3.95319
thorax -1.47367 -2.05827 8.88856
lowerneck 1.65676 -12.8942 -9.70774
upperneck 7.66139 -17.2216 -2.94728
head 2.78485 -8.96098 0.202549
rclavicle 5.69642e-015 -2.26615e-014
rhumerus -62.3218 34.4258 -75.8651
rradius 56.3349
rwrist -4.21487
rhand -5.08564 -48.2636
rfingers 7.12502
rthumb 20.7111 -77.1784
lclavicle 5.69642e-015 -2.26615e-014
lhumerus -73.4883 -24.9197 68.6938
lradius 91.5846
lwrist -6.76296
lhand -12.7844 -18.3371
lfingers 7.12502
lthumb 13.301 11.2185
rfemur -18.0915 7.38128 21.1106
rtibia 29.7879
rfoot -18.3856 -20.7136
rtoes 2.69477
lfemur -24.2089 -12.2042 -14.6921
ltibia 35.4321
lfoot -13.8797 6.06533
ltoes -6.5407
413
root 32.3908 16.0199 0.994762 -349.185 -86.1501 356.854
lowerback -1.43975 -3.37506 -8.44213
upperback -3.1863 -4.51777 4.01426
thorax -1.54967 -2.09069 8.94589
lowerneck 1.43422 -13.1136 -9.78736
upperneck 8.05298 -17.4781 -3.07128
head 2.96443 -9.10988 0.12697
rclavicle 3.99371e-014 -9.54166e-015
rhumerus -62.3979 34.6985 -76.0417
rradius 56.2897
rwrist -4.20179
rhand -5.09287 -48.363
rfingers 7.12502
rthumb 20.7042 -77.2786
lclavicle 3.99371e-014 -9.54166e-015
lhumerus -73.5322 -24.7805 68.5693
lradius 91.6385
lwrist -6.79907
lhand -12.7162 -17.4966
lfingers 7.12502
lthumb 13.3667 12.0547
rfemur -18.0577 7.31384 21.2213
rtibia 29.7863
rfoot -18.3684 -20.7597
rtoes 3.13007
lfemur -24.2761 -12.0789 -14.6189
ltibia 35.5391
lfoot -13.9881 5.78565
ltoes -6.41987
414
root 32.3939 16.0168 0.995483 -349.059 -86.087 356.667
lowerback -1.36045 -3.4761 -8.49144
upperback -3.16254 -4.65835 4.09413
thorax -1.5292 -2.16233 9.06023
lowerneck 1.46059 -13.1794 -9.94423
upperneck 7.82688 -17.5748 -3.01544
head 2.90714 -9.15165 0.17379
rclavicle 2.17545e-014 -1.47101e-014
rhumerus -62.1655 35.043 -75.9385
rradius 56.3405
rwrist -3.60864
rhand -3.64944 -49.255
rfingers 7.12502
rthumb 22.0906 -78.0132
lclavicle 2.17545e-014 -1.47101e-014
lhumerus -73.5509 -24.4629 68.4181
lradius 91.7029
lwrist -6.71278
lhand -12.2421 -17.8393
lfingers 7.12502
lthumb 13.8237 11.6814
rfemur -18.0416 7.10079 21.2847
rtibia 29.8171
rfoot -18.3393 -20.8054
rtoes 3.10866
lfemur -24.3642 -11.7281 -14.6433
ltibia 35.7285
lfoot -14.1509 5.24804
ltoes -5.44933
415
root 32.3991 16.0114 0.9968 -350.231 -85.9194 357.813
lowerback -1.26208 -3.61239 -8.61592
upperback -3.16012 -4.84828 4.13293
thorax -1.52835 -2.25559 9.17421
lowerneck 0.974147 -13.305 -9.87127
upperneck 8.38013 -17.6603 -3.37017
head 3.14479 -9.22585 -0.013896
rclavicle -1.34801e-014 2.46493e-014
rhumerus -61.9807 35.3616 -75.9088
rradius 56.4096
rwrist -3.40287
rhand -2.73679 -49.591
rfingers 7.12502
rthumb 22.9666 -78.2429
lclavicle -1.34801e-014 2.46493e-014
lhumerus -73.525 -24.1831 68.2543
lradius 91.6911
lwrist -6.55746
lhand -12.0928 -17.7112
lfingers 7.12502
lthumb 13.9676 11.7996
rfemur -18.0355 6.73878 21.2579
rtibia 29.8424
rfoot -18.3802 -20.7897
rtoes 3.06387
lfemur -24.5594 -11.1595 -14.7809
ltibia 36.01
lfoot -14.3012 4.30556
ltoes -4.40543
416
root 32.4064 16.0145 0.996269 -351.131 -85.6653 358.795
lowerback -1.17898 -3.74035 -8.68555
upperback -3.25659 -5.02977 4.1272
thorax -1.63194 -2.33676 9.21247
lowerneck 1.306 -13.4548 -9.99352
upperneck 8.23414 -17.9134 -3.17885
head 3.07641 -9.34254 0.0811203
rclavicle 3.15943e-014 -2.0276e-014
rhumerus -62.0693 35.5353 -76.0939
rradius 56.4145
rwrist -3.51393
rhand -2.61273 -49.4961
rfingers 7.12502
rthumb 23.0856 -78.1331
lclavicle 3.15943e-014 -2.0276e-014
lhumerus -73.5413 -24.0627 68.0417
lradius 91.6951
lwrist -6.59792
lhand -11.8243 -17.1498
lfingers 7.12502
lthumb 14.2263 12.343
rfemur -18.1313 6.30199 21.2578
rtibia 29.8549
rfoot -18.385 -20.7744
rtoes 3.02803
lfemur -24.895 -10.7319 -14.8664
ltibia 36.372
lfoot -14.4781 3.35285
ltoes -2.63446
417
root 32.4123 16.0223 0.993798 -350.573 -85.5147 358.458
lowerback -1.30015 -3.80997 -8.65478
upperback -3.35831 -5.11791 4.11402
thorax -1.655 -2.37769 9.1727
lowerneck 1.45039 -13.6888 -10.0388
upperneck 8.23022 -18.249 -3.06925
head 3.0783 -9.50568 0.114713
rclavicle -1.0084e-013 9.14409e-015
rhumerus -62.1748 35.562 -76.2716
rradius 56.4165
rwrist -3.57865
rhand -2.60883 -49.4564
rfingers 7.12502
rthumb 23.0893 -78.093
lclavicle -1.0084e-013 9.14409e-015
lhumerus -73.5133 -24.0105 67.7138
lradius 91.8288
lwrist -6.72288
lhand -11.1958 -16.9666
lfingers 7.12502
lthumb 14.8319 12.4825
rfemur -18.3881 5.98518 21.3423
rtibia 29.8375
rfoot -18.2514 -20.831
rtoes 2.59191
lfemur -25.3542 -10.2515 -14.8348
ltibia 36.769
lfoot -14.698 2.36358
ltoes 0.552302
418
root 32.4149 16.0247 0.995301 -350.22 -85.205 358.069
lowerback -1.15422 -3.8983 -8.65312
upperback -3.35738 -5.2471 4.14074
thorax -1.70521 -2.43977 9.20717
lowerneck 1.42204 -13.8877 -9.92259
upperneck 8.1471 -18.5086 -3.14521
head 3.04253 -9.62901 0.0666185
rclavicle 1.15233e-014 -1.98785e-015
rhumerus -62.1825 35.629 -76.3046
rradius 56.4665
rwrist -3.70883
rhand -2.54753 -49.3387
rfingers 7.12502
rthumb 23.1482 -77.9679
lclavicle 1.15233e-014 -1.98785e-015
lhumerus -73.4283 -23.8794 67.4526
lradius 92.0198
lwrist -6.71052
lhand -10.8089 -17.0507
lfingers 7.12502
lthumb 15.2045 12.3706
rfemur -18.3 5.69715 21.4512
rtibia 29.7675
rfoot -18.2141 -20.9732
rtoes 2.68639
lfemur -25.6084 -9.82205 -14.8359
ltibia 37.1621
lfoot -14.9058 1.22705
ltoes 3.57831
419
root 32.4154 16.0267 0.993135 -350.207 -84.8839 358.146
lowerback -1.13507 -3.988 -8.7824
upperback -3.36972 -5.36988 4.2151
thorax -1.68467 -2.49971 9.35986
lowerneck 1.64748 -14.0478 -9.85807
upperneck 7.85366 -18.7545 -3.1487
head 2.90122 -9.73694 0.080731
rclavicle -9.09502e-014 3.06128e-014
rhumerus -62.2075 35.5985 -76.1635
rradius 56.6473
rwrist -3.76319
rhand -2.42031 -49.1074
rfingers 7.12502
rthumb 23.2702 -77.7212
lclavicle -9.09502e-014 3.06128e-014
lhumerus -73.2219 -23.7349 67.2951
lradius 92.143
lwrist -6.69321
lhand -10.5801 -17.1498
lfingers 7.12502
lthumb 15.4249 12.2547
rfemur -18.3169 5.50173 21.5016
rtibia 29.6493
rfoot -18.3064 -21.157
rtoes 3.09895
lfemur -26.107 -9.47126 -14.8179
ltibia 37.6418
lfoot -15.0667 0.388387
ltoes 4.3285
420
root 32.4181 16.026 0.990705 -349.852 -84.5532 357.972
lowerback -1.22636 -4.07203 -8.8767
upperback -3.37601 -5.47628 4.29417
thorax -1.60097 -2.55626 9.48846
lowerneck 1.08244 -14.3214 -9.77849
upperneck 8.12449 -19.0377 -3.3146
head 3.07868 -9.88925 -0.0553504
rclavicle -1.12562e-014 -2.26615e-014
rhumerus -62.3027 35.5203 -76.0283
rradius 56.9463
rwrist -4.07545
rhand -2.81941 -48.8465
rfingers 7.12502
rthumb 22.8873 -77.5082
lclavicle -1.12562e-014 -2.26615e-014
lhumerus -72.9866 -23.6561 67.1331
lradius 92.3181
lwrist -6.7534
lhand -10.4129 -17.36
lfingers 7.12502
lthumb 15.586 12.032
rfemur -18.4578 5.24547 21.5757
rtibia 29.5603
rfoot -18.3994 -21.3433
rtoes 3.22099
lfemur -26.783 -9.16803 -14.7393
ltibia 38.1384
lfoot -15.0703 -0.424874
ltoes 4.54169
421
root 32.4194 16.0288 0.989143 -349.513 -83.9387 357.633
lowerback -1.05937 -4.22617 -8.90355
upperback -3.40531 -5.69705 4.36356
thorax -1.66637 -2.66211 9.58578
lowerneck 0.847705 -14.5579 -9.74604
upperneck 8.09147 -19.3238 -3.31152
head 3.11573 -10.0273 -0.0916115
rclavicle 2.67738e-014 -5.00937e-014
rhumerus -62.5624 35.5218 -76.0038
rradius 57.3003
rwrist -4.38113
rhand -2.71542 -49.387
rfingers 7.12502
rthumb 22.9871 -78.0364
lclavicle 2.67738e-014 -5.00937e-014
lhumerus -72.9326 -23.6034 66.9789
lradius 92.6256
lwrist -6.88803
lhand -10.6544 -17.5256
lfingers 7.12502
lthumb 15.3534 11.8844
rfemur -18.3354 4.92774 21.737
rtibia 29.4866
rfoot -18.608 -21.7
rtoes 3.76206
lfemur -27.1662 -8.7704 -14.7172
ltibia 38.7432
lfoot -15.0208 -1.62568
ltoes 6.97814
